<svg xmlns="http://www.w3.org/2000/svg" width="48" height="48" viewBox="0 0 48 48">
    <defs>
        <clipPath id="clip-path">
            <path d="M0 0H48V48H0z" class="cls-persian"/>
        </clipPath>
        <style>
            .cls-persian{fill:none}
        </style>
    </defs>
    <g id="Bank_Parsian_Color" clip-path="url(#clip-path)" data-name="Bank / Parsian / Color">
        <path id="Boundary" d="M0 0H48V48H0z" class="cls-persian"/>
        <path id="Shape" fill="#b17d53" fill-rule="evenodd" d="M44.843 0H24.759v-19.641c.269-3.166.745-6.081 1.913-8.162.694.39 1.933 2.112 2.3 5.446a11.194 11.194 0 0 1 4.011-4.633c.135 3.61-.08 4.984-1.092 7.5a7.9 7.9 0 0 1-5.329 4.35v13.334h16.475c0-10.855.2-21.712 0-32.565q-.005-.163-.019-.326a5.154 5.154 0 0 0-.379-1.523 5.143 5.143 0 0 0-2.656-2.687 17.1 17.1 0 0 1 1.085-1.484 6.934 6.934 0 0 1 1.757 1.275 6.919 6.919 0 0 1 1.63 2.585 7.019 7.019 0 0 1 .39 2.292zm-21.6 0H3.157v-34.239a7.019 7.019 0 0 1 .39-2.292 6.919 6.919 0 0 1 1.63-2.585 6.934 6.934 0 0 1 1.757-1.275 17.1 17.1 0 0 1 1.086 1.484 5.143 5.143 0 0 0-2.657 2.687 5.154 5.154 0 0 0-.379 1.52q-.013.163-.019.326c-.207 10.853 0 21.71 0 32.565h16.47v-13.334a7.9 7.9 0 0 1-5.329-4.35c-1.012-2.513-1.227-3.887-1.092-7.5a11.194 11.194 0 0 1 4.011 4.633c.37-3.333 1.609-5.056 2.3-5.446 1.168 2.081 1.644 5 1.913 8.162zm8.347-46.771q-.025.246-.068.491-.06.343-.154.678a11.87 11.87 0 0 1-2.978 4.78c-.239.255-.482.506-.728.754s-.466.465-.7.7a34.664 34.664 0 0 0 1.317 3.3q.3.658.631 1.3a25.62 25.62 0 0 1 2.049-2.745 25.12 25.12 0 0 1 1.8-1.894 9.863 9.863 0 0 1-.928-2.925 20.87 20.87 0 0 1-.241-4.439zm-15.179 0q.025.246.068.491.06.343.154.678a11.87 11.87 0 0 0 2.978 4.78c.239.255.482.506.728.754s.466.465.7.7a34.664 34.664 0 0 1-1.317 3.3q-.3.658-.631 1.3a25.62 25.62 0 0 0-2.049-2.745 25.12 25.12 0 0 0-1.8-1.894 9.863 9.863 0 0 0 .928-2.925 20.87 20.87 0 0 0 .24-4.439z" transform="translate(0 48)"/>
        <path id="Shape-2" fill-rule="evenodd" d="M42.982-43.445c-3.172 2.286-6.883 7.282-7.32 12.54-.356 4.282-1.088 6.153-1.634 6.955A16.29 16.29 0 0 0 34-28.94a9.189 9.189 0 0 0-2.534 1.8c-.115-.375-1.055-2.3-4.152-1.446.149-.479.313-.954.5-1.422a22.755 22.755 0 0 1 1.576-3.24l.012-.02a24.282 24.282 0 0 1 2.226-3.169 23.8 23.8 0 0 1 2.269-2.388.586.586 0 0 0 .069-.062 21.94 21.94 0 0 1 1.856-1.509 16.669 16.669 0 0 1 6.036-2.851c.367-.082.742-.148 1.124-.198zm-37.963 0c3.172 2.286 6.883 7.282 7.32 12.54.356 4.282 1.088 6.153 1.634 6.955A16.29 16.29 0 0 1 14-28.94a9.189 9.189 0 0 1 2.534 1.8c.115-.375 1.055-2.3 4.152-1.446-.149-.479-.313-.954-.5-1.422a22.755 22.755 0 0 0-1.576-3.24l-.012-.02a24.282 24.282 0 0 0-2.226-3.169 23.794 23.794 0 0 0-2.269-2.388.585.585 0 0 1-.069-.062 21.94 21.94 0 0 0-1.856-1.509 16.669 16.669 0 0 0-6.036-2.851c-.367-.082-.742-.148-1.124-.198zm20.9 15.331a2.926 2.926 0 0 0-1.931-.707 2.9 2.9 0 0 0-1.905.707 22.03 22.03 0 0 0-2.262-5.456 47.159 47.159 0 0 0 2.015-4.609c.892-2.781 1.669-6.189 2.165-8.027.476 1.843 1.255 5.369 2.165 8.027.356 1.04 1.594 3.813 2.015 4.609a22.03 22.03 0 0 0-2.263 5.456zm7.013-16.659c.24-1.9 2.391-2.045 3.718-1.6 1.906.638 2.564 2.419 1.033 3.408-.739.477-1.533.867-2.251 1.368q-.905.632-1.745 1.35l-.009-.02a11.246 11.246 0 0 1-.747-4.506zm-17.861 0c-.24-1.9-2.391-2.045-3.718-1.6-1.906.638-2.564 2.419-1.033 3.408.739.477 1.533.867 2.251 1.368q.905.632 1.745 1.35l.009-.02a11.246 11.246 0 0 0 .744-4.506zm10.389-.889a2.2 2.2 0 0 1 2.479-2.321c.74.108 2.749.621 2.184 2.344a8.21 8.21 0 0 1-.932 1.9 18.225 18.225 0 0 1-2.382 2.823l-.255.255a35.164 35.164 0 0 1-.831-3.43q-.15-.783-.265-1.57zm-2.916 0a2.2 2.2 0 0 0-2.479-2.321c-.74.108-2.749.621-2.184 2.344a8.21 8.21 0 0 0 .932 1.9 18.225 18.225 0 0 0 2.382 2.823l.255.255a35.164 35.164 0 0 0 .831-3.43q.146-.783.261-1.57z" data-name="Shape" transform="translate(0 48)"/>
    </g>
</svg>
